<?xml version="1.0" encoding="UTF-8"?>
<svg width="256" height="256" viewBox="0 0 256 256" fill="none" xmlns="http://www.w3.org/2000/svg">
    <path d="M191.97 23.2498L191.97 232.75C191.97 238.973 184.903 242.55 179.777 239.057L37.7774 140.307C34.6899 138.21 32.75 134.733 32.75 131.023L32.75 124.977C32.75 121.267 34.6899 117.79 37.7774 115.693L179.777 16.9428C184.903 13.4503 191.97 17.0274 191.97 23.2498Z" fill="#0065A9"/>
    <path d="M191.97 124.977L191.97 131.023C191.97 134.733 190.03 138.21 186.943 140.307L44.9429 239.057C39.8167 242.55 32.75 238.973 32.75 232.75L32.75 23.2498C32.75 17.0274 39.8167 13.4503 44.9429 16.9428L186.943 115.693C190.03 117.79 191.97 121.267 191.97 124.977Z" fill="#007ACC"/>
    <path d="M179.777 239.057C184.903 242.55 191.97 238.973 191.97 232.75L191.97 23.2498C191.97 17.0274 184.903 13.4503 179.777 16.9428L37.7774 115.693C34.6899 117.79 32.75 121.267 32.75 124.977L32.75 131.023C32.75 134.733 34.6899 138.21 37.7774 140.307L179.777 239.057ZM179.777 239.057L44.9429 239.057C39.8167 242.55 32.75 238.973 32.75 232.75L32.75 23.2498C32.75 17.0274 39.8167 13.4503 44.9429 16.9428L179.777 16.9428" stroke="#1F9CF0" stroke-width="4"/>
</svg> 