<?xml version="1.0" encoding="UTF-8"?>
<svg width="256" height="256" viewBox="0 0 256 256" fill="none" xmlns="http://www.w3.org/2000/svg">
    <path d="M128 24C70.562 24 24 70.562 24 128C24 185.438 70.562 232 128 232C185.438 232 232 185.438 232 128C232 70.562 185.438 24 128 24ZM176.984 176.984C175.172 179.609 171.734 180.422 169.109 178.609C143.953 162.641 112.156 159.016 71.7031 167.641C68.7031 168.266 65.8906 166.266 65.2656 163.266C64.6406 160.266 66.6406 157.453 69.6406 156.828C113.781 147.391 148.766 151.578 176.984 169.109C179.609 170.922 180.422 174.359 178.609 176.984ZM189.859 147.859C187.609 151.109 183.234 152.109 179.984 149.859C151.234 131.484 107.859 126.109 71.2344 136.484C67.6094 137.484 63.7969 135.297 62.7969 131.672C61.7969 128.047 63.9844 124.234 67.6094 123.234C109.234 111.609 157.234 117.609 190.234 138.484C193.484 140.734 194.484 145.109 192.234 148.359L189.859 147.859ZM190.734 117.984C156.734 96.7969 99.1094 95.0469 64.1094 106.422C59.7969 107.609 55.2344 105.047 54.0469 100.734C52.8594 96.4219 55.4219 91.8594 59.7344 90.6719C100.109 77.7969 163.859 79.9219 203.109 104.109C206.984 106.484 208.172 111.609 205.797 115.422C203.422 119.297 198.297 120.484 194.484 118.109L190.734 117.984Z" fill="#1DB954"/>
</svg> 