<?xml version="1.0" encoding="UTF-8"?>
<svg width="256" height="256" viewBox="0 0 256 256" fill="none" xmlns="http://www.w3.org/2000/svg">
    <path d="M128 232C185.438 232 232 185.438 232 128C232 70.562 185.438 24 128 24C70.562 24 24 70.562 24 128C24 185.438 70.562 232 128 232Z" fill="#E8F0FE"/>
    <path d="M128 80C149.094 80 166 96.906 166 118C166 139.094 149.094 156 128 156C106.906 156 90 139.094 90 118C90 96.906 106.906 80 128 80Z" fill="#4285F4"/>
    <path d="M128 80C149.094 80 166 96.906 166 118L128 118L90 118C90 96.906 106.906 80 128 80Z" fill="#EA4335"/>
    <path d="M90 118L128 118L166 118L147.5 149.196L128 180.392L108.5 149.196L90 118Z" fill="#34A853"/>
    <path d="M128 118L166 118L147.5 149.196L128 180.392L128 118Z" fill="#FBBC04"/>
</svg> 