<?xml version="1.0" encoding="UTF-8"?>
<svg width="256" height="256" viewBox="0 0 256 256" fill="none" xmlns="http://www.w3.org/2000/svg">
    <path d="M33.5 24C28.2533 24 24 28.2533 24 33.5V222.5C24 227.747 28.2533 232 33.5 232H222.5C227.747 232 232 227.747 232 222.5V33.5C232 28.2533 227.747 24 222.5 24H33.5ZM120.75 64H176C178.209 64 180 65.7909 180 68V188C180 190.209 178.209 192 176 192H80C77.7909 192 76 190.209 76 188V68C76 65.7909 77.7909 64 80 64H120.75ZM120.75 76H88V180H168V76H120.75ZM120.75 88H156V100H120.75V88ZM120.75 112H156V124H120.75V112ZM100.75 88H108.75V100H100.75V88ZM100.75 112H108.75V124H100.75V112ZM100.75 136H108.75V148H100.75V136ZM120.75 136H156V148H120.75V136Z" fill="black"/>
</svg> 